PathFileType	4	(X/Y/Z)	./resultDataOpenSim/trcMotMarkerGrf/sub06/qtm-13-04.trc
DataRate	CameraRate	NumFrames	NumMarkers	Units	OrigDataRate	OrigDataStartFrame	OrigNumFrames
250.000000	250.000000	9	24	m	250.000000	267	533
Frame#	Time	L.Toe.Tip			R.Toe.Tip			L.Ankle.Lat			R.Ankle.Lat			L.Ankle.Med			R.Ankle.Med			L.Heel			R.Heel			L.Knee.Lat			R.Knee.Lat			L.Knee.Med			R.Knee.Med			L.Thigh.Upper			R.Thigh.Upper			L.ASIS			R.ASIS			V.Sacral			L.Acromium			R.Acromium			C7			L.Elbow			R.Elbow			L.Wrist.Lat			R.Wrist.Lat
		X1	Y1	Z1	X2	Y2	Z2	X3	Y3	Z3	X4	Y4	Z4	X5	Y5	Z5	X6	Y6	Z6	X7	Y7	Z7	X8	Y8	Z8	X9	Y9	Z9	X10	Y10	Z10	X11	Y11	Z11	X12	Y12	Z12	X13	Y13	Z13	X14	Y14	Z14	X15	Y15	Z15	X16	Y16	Z16	X17	Y17	Z17	X18	Y18	Z18	X19	Y19	Z19	X20	Y20	Z20	X21	Y21	Z21	X22	Y22	Z22	X23	Y23	Z23	X24	Y24	Z24

267	1.064	0.14025184	-0.016055267	-0.034531988	0.63407705	0.090244949	0.16234009	0.023501176	0.039942051	-0.0677006	0.49727149	0.097780037	0.16906193	0.025998229	0.058795579	0.018228034	0.52363095	0.12397526	0.084293354	-0.052644546	0.026703009	-0.02286051	0.45595316	0.06815405	0.10145878	0.1390067	0.39306382	-0.088705201	0.48508847	0.49146418	0.1774893	0.11910056	0.4022488	0.033932456	0.47399782	0.46632902	0.052456209	0.2269535	0.76798114	-0.16132091	0.2613649	0.78181341	0.19081753	0.31153939	0.81281548	-0.12505346	0.33445195	0.83458958	0.11747007	0.13925601	0.90215264	0.012954118	0.28188348	1.3108703	-0.17893299	0.24911049	1.2951397	0.18187377	0.18731737	1.3350496	-0.006907879	0.32521189	0.98885145	-0.24802603	0.099414412	1.0211302	0.23998463	0.560178	0.91769023	-0.1877936	0.14824835	0.79753828	0.31133547
268	1.068	0.14027508	-0.016093389	-0.034586417	0.65314163	0.091206627	0.16146005	0.023943997	0.040531381	-0.067629185	0.51602337	0.096878052	0.16875688	0.026764239	0.059295132	0.018196985	0.54160494	0.12373342	0.083907877	-0.052183346	0.027699938	-0.022705382	0.47513764	0.066919512	0.10106871	0.14153325	0.39294799	-0.088707165	0.49184	0.48992036	0.17690154	0.12220256	0.40159994	0.034371292	0.48094161	0.46447589	0.051850685	0.23191794	0.76693837	-0.16097927	0.26852307	0.78057439	0.1909739	0.31705357	0.81119569	-0.12539166	0.3419049	0.83341845	0.11766453	0.14564774	0.90108728	0.013882434	0.2883254	1.3097703	-0.17863571	0.25573872	1.2939179	0.18225053	0.19386557	1.3339818	-0.0064762051	0.33421157	0.9875771	-0.24806651	0.10502388	1.0205826	0.23984561	0.56947161	0.92052603	-0.18572863	0.15181983	0.79689997	0.3120925
269	1.072	0.14029115	-0.016132864	-0.034644743	0.67186081	0.09229418	0.1604644	0.024434434	0.041113904	-0.067521839	0.53444335	0.096275179	0.16837583	0.02757064	0.059793883	0.018145993	0.55927502	0.12377119	0.083565224	-0.051698692	0.028727664	-0.022579257	0.49394384	0.066046308	0.10061415	0.14423207	0.39280232	-0.088706426	0.49850279	0.48823671	0.17629355	0.12565112	0.40103742	0.034557779	0.48769009	0.4625545	0.051260102	0.23694613	0.76586429	-0.16057179	0.27568865	0.77931014	0.19112481	0.32264385	0.80964801	-0.12566122	0.34906563	0.83219135	0.117718	0.15214362	0.89996874	0.014839537	0.29478155	1.3086362	-0.17833223	0.26238062	1.2926659	0.18263072	0.2004356	1.3328865	-0.0060368308	0.34289347	0.986348	-0.2484393	0.11069901	1.0199737	0.23971006	0.57867745	0.92326723	-0.18369856	0.15551193	0.79623288	0.31286469
270	1.076	0.14030447	-0.016172419	-0.034705155	0.69017213	0.093541072	0.15934021	0.024971542	0.04169098	-0.067443571	0.55244454	0.095946872	0.16791735	0.028355097	0.060312304	0.018090731	0.57661593	0.12408326	0.083322036	-0.05121135	0.029840302	-0.022534254	0.51231518	0.065486652	0.10009126	0.14710594	0.39261735	-0.088705731	0.50510951	0.48642042	0.17567442	0.12937741	0.40057304	0.034582536	0.49416472	0.46057724	0.050757232	0.24204055	0.76475715	-0.16010213	0.28286572	0.77802674	0.19127255	0.32831228	0.80821158	-0.12585681	0.355964	0.83091046	0.11764425	0.15870776	0.89882189	0.015822475	0.30125298	1.3074707	-0.17802126	0.26903332	1.2913843	0.18301388	0.2070272	1.331765	-0.005595437	0.35136376	0.98509729	-0.24894666	0.11644356	1.0193064	0.23958616	0.58780017	0.92591418	-0.18169527	0.15926025	0.79553427	0.31364889
271	1.08	0.14031869	-0.016210062	-0.034762491	0.70799294	0.094960445	0.15810355	0.025576051	0.042280371	-0.067461276	0.56991819	0.095856291	0.1673806	0.029099228	0.060866215	0.018036035	0.59357401	0.12465241	0.083184184	-0.0507213	0.031046469	-0.022576943	0.53019341	0.065178553	0.099487424	0.15015793	0.39238765	-0.088696813	0.51169046	0.48448072	0.17505394	0.13325273	0.40016867	0.034588718	0.50033331	0.45855467	0.05040824	0.24720455	0.76362046	-0.15960236	0.29005832	0.77673029	0.19141941	0.33403462	0.80682934	-0.1259907	0.3628496	0.82962825	0.11757296	0.16530399	0.89768196	0.016824515	0.30773811	1.3062797	-0.1777031	0.27569152	1.2900742	0.18340078	0.2136415	1.3306201	-0.005157771	0.35978379	0.98375085	-0.24923656	0.12225597	1.0185847	0.23948506	0.59684041	0.92846413	-0.17971569	0.16304305	0.79480699	0.31444611
272	1.084	0.14034031	-0.016243826	-0.034807373	0.72523478	0.09656315	0.15679018	0.02624846	0.042896086	-0.067573003	0.58674035	0.095968264	0.16676713	0.029824485	0.061456583	0.017973055	0.61003133	0.12543289	0.083052256	-0.050216888	0.03232261	-0.022679582	0.54751282	0.065053755	0.098797924	0.15340136	0.39211383	-0.088665142	0.51825867	0.48243587	0.17443039	0.13719564	0.39979747	0.034659372	0.50631392	0.45650516	0.050182294	0.2524408	0.76245678	-0.15910365	0.29727052	0.77542689	0.19156766	0.33978898	0.80543943	-0.12607336	0.36987949	0.82838159	0.11758628	0.17193386	0.89656767	0.017842001	0.31423458	1.3050684	-0.1773775	0.28235935	1.2887399	0.18379697	0.22028004	1.3294562	-0.0047206025	0.36820772	0.98230764	-0.24907333	0.12813351	1.0178123	0.23941	0.60579417	0.93091269	-0.17777096	0.16685883	0.79405913	0.31525775
273	1.088	0.14037754	-0.016272318	-0.034829928	0.74181099	0.098377445	0.1554284	0.026956186	0.043546171	-0.067724496	0.60282007	0.096238221	0.16607458	0.030549479	0.062072969	0.017888945	0.62583012	0.12634483	0.082783632	-0.049689642	0.03365153	-0.02281762	0.56420533	0.065034593	0.09803995	0.1568542	0.39179829	-0.088602262	0.52481516	0.48031561	0.17379063	0.14119253	0.39946133	0.03480619	0.51236896	0.45446218	0.049911033	0.2577485	0.76126976	-0.15861229	0.30450636	0.7741226	0.19171958	0.34557383	0.80404271	-0.12610321	0.37703296	0.82716766	0.11767479	0.1785882	0.89546435	0.018873358	0.32073866	1.3038401	-0.17704466	0.28904372	1.2873883	0.18420755	0.22694218	1.3282769	-0.0042750382	0.37658106	0.9808001	-0.24851944	0.13408071	1.0169908	0.2393506	0.61465717	0.93325862	-0.17588065	0.17075263	0.793301	0.31608435
274	1.092	0.1404263	-0.016296609	-0.034836881	0.75763738	0.10043342	0.15402886	0.027675548	0.044244813	-0.067875653	0.61813288	0.096597061	0.16529026	0.031291213	0.062714627	0.017780122	0.64084441	0.12730339	0.082309748	-0.049129922	0.03503384	-0.022981685	0.58021404	0.065024479	0.097246289	0.16052787	0.39143921	-0.088512468	0.53137536	0.47816034	0.17312746	0.14528116	0.39916483	0.034999386	0.51871746	0.45246281	0.049414524	0.26312324	0.76006747	-0.15811625	0.31176995	0.77282355	0.19187746	0.35140003	0.80267062	-0.1260769	0.38424457	0.82597242	0.11780421	0.18520312	0.89433483	0.019915543	0.32724779	1.3025986	-0.17670503	0.29574677	1.2860246	0.1846348	0.23362884	1.3270843	-0.0038154586	0.38495078	0.97925179	-0.24789397	0.14010728	1.0161208	0.23929466	0.62342959	0.93550631	-0.17405492	0.17482126	0.79253589	0.31692769
275	1.096	0.14046405	-0.016321608	-0.034859353	0.77263156	0.10273716	0.15259261	0.028403938	0.045002509	-0.068020208	0.63269952	0.09695008	0.16438479	0.032086925	0.063401869	0.017657934	0.65500853	0.1282577	0.081638099	-0.048524445	0.036481257	-0.023173636	0.59549381	0.064926097	0.096430193	0.16442395	0.39103281	-0.088402738	0.53798647	0.47601809	0.17245538	0.1495243	0.3988913	0.035195143	0.5253835	0.45053234	0.04866664	0.26855961	0.75885944	-0.1576017	0.31906555	0.77153598	0.19204367	0.35728235	0.80134797	-0.12599835	0.3914713	0.82478652	0.11794809	0.19173032	0.8931434	0.020955009	0.3337643	1.301349	-0.17635656	0.30247349	1.28465	0.18508254	0.24033986	1.3258836	-0.0033394977	0.39354742	0.97775373	-0.24757089	0.14621771	1.0152042	0.23924102	0.63211557	0.93766225	-0.17228368	0.17910079	0.79175571	0.31778547
